<?xml version="1.0" standalone="no"?><!DOCTYPE svg PUBLIC "-//W3C//DTD SVG 1.1//EN" "http://www.w3.org/Graphics/SVG/1.1/DTD/svg11.dtd"><svg t="1721354135194" class="icon" viewBox="0 0 1024 1024" version="1.1" xmlns="http://www.w3.org/2000/svg" p-id="4375" xmlns:xlink="http://www.w3.org/1999/xlink" width="128" height="128"><path d="M1006.762667 438.613333a163.242667 163.242667 0 0 0-120.917334-10.965333 160.853333 160.853333 0 0 0-65.408-102.4l-12.885333-10.154667-10.965333 12.373334a135.125333 135.125333 0 0 0-25.6 97.450666c1.706667 23.637333 10.154667 46.378667 24.448 65.493334-11.221333 6.272-22.997333 11.52-35.2 15.402666a233.386667 233.386667 0 0 1-72.448 11.690667H3.754667l-1.450667 15.317333a285.482667 285.482667 0 0 0 24.106667 148.992l9.386666 18.517334 1.024 1.706666c64.213333 106.197333 192.554667 161.152 315.52 161.152 238.165333 0 419.328-113.706667 509.610667-332.202666 60.330667 3.072 121.941333-14.293333 151.552-70.314667l7.509333-14.293333-14.250666-7.978667v0.213333zM203.093333 714.965333a53.546667 53.546667 0 0 1 2.048-106.965333 53.333333 53.333333 0 0 1 52.906667 53.504 54.229333 54.229333 0 0 1-54.954667 53.461333z" fill="#039BC5" p-id="4376"></path><path d="M203.093333 633.258667a28.16 28.16 0 1 0 28.928 28.245333 28.501333 28.501333 0 0 0-8.704-20.138667 27.946667 27.946667 0 0 0-20.224-8.106666z" fill="#38504F" p-id="4377"></path><path d="M54.869333 387.882667h97.109334v97.152H54.912V387.84m129.493333 0h97.109334v97.152H184.362667V387.84m0-129.493333h97.109333v97.152H184.362667V258.389333m129.578666 0h97.152v97.152H313.941333V258.389333m0 129.493334h97.152v97.152H313.941333V387.84m129.493334 0h97.152v97.152h-97.152V387.84m129.578666 0h97.152v97.152H573.013333V387.84m-129.578666-129.493333h97.152v97.152h-97.152V258.389333m0-129.578666h97.152v97.152h-97.152V128.810667" fill="#2BB558" p-id="4378"></path><path d="M0 0h1024v1024H0z" fill="#D8D8D8" fill-opacity="0" p-id="4379"></path></svg>